<svg xmlns="http://www.w3.org/2000/svg" width="250.6" height="170" viewBox="0 0 250.6 170">
  <g>
    <g>
      <ellipse cx="127.344" cy="85" fill="rgb(245,247,251)" rx="85" ry="85"/>
      <g opacity=".2">
        <ellipse cx="134.9" cy="150.639" fill="rgb(22,199,116)" rx="68.189" ry="5.761"/>
      </g>
      <path fill="rgb(26,240,140)" fill-rule="evenodd" d="M177.11666667 103.03888889V26.82222222c0-5.7611111-4.72222223-10.48333333-10.48333334-10.48333333H76.4388889c-5.76111111 0-10.48333333 4.72222222-10.48333333 10.48333333v101.3388889c0 11.9 9.35 21.53333332 20.96666666 21.53333332h102v-46.5611111l-11.80555555-.09444445z"/>
      <path fill="rgb(26,231,105)" fill-rule="evenodd" d="M177.21111111 139.21111111V103.0388889h-.09444444V26.82222222c0-2.83333333-1.13333334-5.28888889-2.92777778-7.17777778l-1.03888889-.85c-.09444444-.09444444-.28333333-.18888888-.37777778-.28333333.09444445 1.13333333-1.88888889 40.04444445-.85 122.87222222.09444445 8.59444445-84.33888889 5.95-91.6111111 2.7388889C66.9 138.07777777 65.95555555 128.1611111 65.95555555 128.1611111c0 5.76111111 2.17222222 10.95555556 5.7611111 14.82777778 3.11666667 3.11666667 6.9888889 6.42222222 15.20555556 6.8h99.73333334c0-.09444445-9.44444445-1.60555556-9.44444445-10.57777778z"/>
      <path fill="rgb(22,199,116)" fill-rule="evenodd" d="M187.69444444 149.69444444c-5.7611111 0-10.48333333-4.72222222-10.48333333-10.48333333l-.09444444-39.66666667h20.96666666v39.66666667c.09444445 5.76111111-4.62777777 10.48333333-10.38888889 10.48333333z"/>
      <g>
        <path fill="rgb(255,255,255)" fill-rule="evenodd" d="M94.85555556 129.95555556H80.3111111c-1.03888889 0-1.88888889-.85-1.88888889-1.8888889v-14.54444444c0-1.03888889.85-1.88888889 1.8888889-1.88888889h14.54444444c1.03888888 0 1.88888888.85 1.88888888 1.8888889v14.54444444c0 1.03888889-.85 1.88888889-1.88888888 1.88888889z"/>
        <path fill="rgb(255,255,255)" fill-rule="evenodd" d="M155.48888889 117.20555556h-48.54444445c-.37777777 0-.75555555-.28333334-.75555555-.75555556v-2.55c0-.37777778.28333333-.75555556.75555555-.75555556h48.54444445c.37777778 0 .75555555.28333334.75555555.75555556v2.55c0 .47222222-.37777777.75555556-.75555555.75555556z"/>
        <path fill="rgb(255,255,255)" fill-rule="evenodd" d="M141.7 128.35h-34.75555556c-.37777777 0-.75555555-.28333333-.75555555-.75555556v-2.55c0-.37777777.28333333-.75555555.75555555-.75555555H141.7c.37777778 0 .75555556.28333333.75555556.75555555v2.55c-.09444445.37777778-.37777778.75555556-.75555556.75555556z"/>
        <path fill="rgb(25,157,230)" fill-rule="evenodd" d="M98.06666667 115.69444444l-1.60555556-1.60555555c-.18888889-.18888889-.47222222-.37777778-.85-.37777778-.28333333 0-.56666667.09444445-.85.37777778l-7.74444444 7.74444444-3.49444445-3.49444444c-.18888889-.18888889-.47222222-.37777778-.85-.37777778-.28333333 0-.56666666.09444445-.85.37777778l-1.60555555 1.60555555c-.1888889.1888889-.37777778.47222223-.37777778.85 0 .28333334.09444444.56666667.37777778.85l4.25 4.25L86.07222222 127.5c.1888889.18888889.47222222.37777778.85.37777778.28333334 0 .56666667-.09444445.85-.37777778l1.60555556-1.60555556L97.97222222 117.3c.1888889-.18888889.37777778-.47222222.37777778-.85 0-.18888889-.09444444-.47222222-.28333333-.75555556z"/>
      </g>
      <g>
        <path fill="rgb(255,255,255)" fill-rule="evenodd" d="M155.48888889 87.36111111h-48.54444445c-.37777777 0-.75555555-.28333333-.75555555-.66111111v-2.55c0-.37777778.28333333-.66111111.75555555-.66111111h48.54444445c.37777778 0 .75555555.28333333.75555555.66111111v2.55c0 .37777778-.37777777.66111111-.75555555.66111111z"/>
        <path fill="rgb(255,255,255)" fill-rule="evenodd" d="M141.7 98.50555556h-34.75555556c-.37777777 0-.75555555-.28333334-.75555555-.75555556V95.2c0-.37777778.28333333-.75555556.75555555-.75555556H141.7c.37777778 0 .75555556.28333334.75555556.75555556v2.55c-.09444445.37777778-.37777778.75555556-.75555556.75555556z"/>
        <g>
          <path fill="rgb(255,255,255)" fill-rule="evenodd" d="M94.85555556 100.11111111H80.3111111c-1.03888889 0-1.88888889-.85-1.88888889-1.88888889V83.67777778c0-1.0388889.85-1.8888889 1.8888889-1.8888889h14.54444444c1.03888888 0 1.88888888.85 1.88888888 1.8888889v14.54444444c0 1.0388889-.85 1.8888889-1.88888888 1.8888889z"/>
          <path fill="rgb(25,157,230)" fill-rule="evenodd" d="M98.06666667 85.85l-1.60555556-1.60555556c-.18888889-.18888888-.47222222-.37777777-.85-.37777777-.28333333 0-.56666667.09444444-.85.37777777l-7.74444444 7.74444445-3.49444445-3.49444445c-.18888889-.18888888-.47222222-.37777777-.85-.37777777-.28333333 0-.56666666.09444444-.85.37777777L80.21666667 90.1c-.1888889.18888889-.37777778.47222222-.37777778.85 0 .28333333.09444444.56666667.37777778.85l4.25 4.25 1.60555555 1.60555556c.1888889.18888888.47222222.37777777.85.37777777.28333334 0 .56666667-.09444444.85-.37777777L89.37777778 96.05l8.59444444-8.59444444c.1888889-.1888889.37777778-.47222223.37777778-.85 0-.1888889-.09444444-.47222223-.28333333-.75555556z"/>
        </g>
      </g>
      <path fill="rgb(255,255,255)" fill-rule="evenodd" d="M100.9 55.15555556s0 13.03333333 15.67777778 13.03333333 15.67777778-13.03333333 15.67777778-13.03333333H100.9z"/>
      <path fill="none" stroke="rgb(51,51,51)" stroke-dasharray="0 0 0 0" stroke-linecap="round" stroke-linejoin="miter" stroke-width="3" d="M86.26111111 44.95555556s0-7.27222223 6.89444445-7.27222223c7.36666666 0 7.36666666 7.27222223 7.36666666 7.27222223"/>
      <path fill="none" stroke="rgb(51,51,51)" stroke-dasharray="0 0 0 0" stroke-linecap="round" stroke-linejoin="miter" stroke-width="3" d="M134.23888889 44.95555556s0-7.27222223 6.89444444-7.27222223C148.5 37.68333333 148.5 44.95555556 148.5 44.95555556"/>
      <ellipse cx="84.561" cy="55.156" fill="rgb(244,136,98)" rx="4.533" ry="3.306"/>
      <ellipse cx="145.289" cy="55.156" fill="rgb(244,136,98)" rx="4.533" ry="3.306"/>
    </g>
    <path fill="rgb(26,240,140)" fill-rule="evenodd" d="M27.62777778 82.61666667l.85 2.3611111.94444444-2.3611111c.75555556-1.98333334 2.55-3.5888889 4.81666667-4.53333334-2.26666667-1.03888889-3.96666667-2.73888889-4.62777778-4.72222222L28.76111111 71l-.94444444 2.36111111C27.0611111 75.34444444 25.26666667 76.95 23 77.89444444c2.26666667 1.0388889 3.96666667 2.7388889 4.62777778 4.72222223z"/>
    <path fill="rgb(26,240,140)" fill-rule="evenodd" d="M38.56666667 23.04444444l.85 2.36111112.94444444-2.36111112c.75555556-1.98333333 2.55-3.58888888 4.81666667-4.53333333C42.9111111 17.47222222 41.2111111 15.77222222 40.55 13.7888889l-.85-2.36111111-.94444444 2.3611111c-.75555556 1.98333334-2.55 3.5888889-4.81666667 4.53333334 2.26666667 1.0388889 3.96666667 2.7388889 4.62777778 4.72222222z"/>
    <path fill="rgb(26,240,140)" fill-rule="evenodd" d="M5.66666667 56.07222222l.94444444 2.83333334 1.13333333-2.83333334C8.6888889 53.71111112 10.76666667 51.72777778 13.6 50.59444444c-2.73888889-1.22777777-4.81666667-3.30555555-5.66666667-5.7611111L6.9888889 42l-1.13333333 2.83333333C4.9111111 47.19444444 2.83333333 49.17777778 0 50.31111111c2.73888889 1.22777778 4.81666667 3.30555556 5.66666667 5.76111111z"/>
    <path fill="rgb(26,240,140)" fill-rule="evenodd" d="M242.66666667 64.07222222l.94444444 2.83333334 1.13333333-2.83333334c.94444445-2.3611111 3.02222223-4.34444444 5.85555556-5.47777778-2.73888889-1.22777777-4.81666667-3.30555555-5.66666667-5.7611111L243.9888889 50l-1.13333333 2.83333333C241.9111111 55.19444444 239.83333333 57.17777778 237 58.31111111c2.83333333 1.32222222 4.81666667 3.4 5.66666667 5.76111111z"/>
    <path fill="rgb(26,240,140)" fill-rule="evenodd" d="M197.23333333 79.14444444l.75555556 2.07777778.75555555-2.07777778c.66111112-1.7 2.26666667-3.2111111 4.34444445-4.0611111-2.07777778-.94444445-3.49444445-2.45555556-4.15555556-4.15555556L198.17777778 68.85l-.75555556 2.07777778c-.6611111 1.7-2.26666666 3.2111111-4.25 4.0611111 1.98333334.85 3.49444445 2.36111112 4.06111111 4.15555556z"/>
    <path fill="rgb(26,240,140)" fill-rule="evenodd" d="M223.06111111 141.29444444l.75555556 2.07777778.75555555-2.07777778c.66111111-1.7 2.26666667-3.2111111 4.34444445-4.0611111-2.07777778-.94444445-3.49444445-2.45555556-4.15555556-4.15555556L224.00555556 131 223.25 133.07777778c-.66111111 1.7-2.26666667 3.2111111-4.25 4.0611111 1.98333333.85 3.49444444 2.36111112 4.06111111 4.15555556z"/>
    <path fill="rgb(26,240,140)" fill-rule="evenodd" d="M231 104.8555603c0 3.21110535 2.6444397 5.85554505 5.8555603 5.85554505 3.305542 0 5.8555603-2.6444397 5.8555603-5.85554505 0-3.2111206-2.6444397-5.8555603-5.8555603-5.8555603C233.6444397 99 231 101.6444397 231 104.8555603zm2.0777893-.00001526c0-2.07777404 1.70001221-3.777771 3.777771-3.777771 2.0777893 0 3.777771 1.69999696 3.777771 3.777771 0 2.07778931-1.6999817 3.77778626-3.777771 3.77778626-2.07775879 0-3.777771-1.69999695-3.777771-3.77778626z"/>
    <path fill="rgb(26,240,140)" fill-rule="evenodd" d="M40 112.26123047c.11691284 2.9229126 2.45524597 5.14431763 5.2612381 5.14431763 2.80599212 0 5.14431763-2.33831788 5.14431763-5.26123047C50.28863525 109.22140503 47.95030975 107 45.14431763 107 42.22141266 107.11691284 40 109.45524597 40 112.26123047zm1.87065887.1169281c0-1.8706665 1.40299988-3.39057922 3.27365876-3.39057922 1.87065887 0 3.3905716 1.40299987 3.3905716 3.27365112 0 1.8706665-1.40299226 3.39057922-3.27365876 3.39057922-1.87065888 0-3.3905716-1.40299988-3.3905716-3.27365112z"/>
    <path fill="rgb(26,240,140)" fill-rule="evenodd" d="M23.06666667 131.15555556h-3.4v-3.4c0-.37777778-.37777778-.75555556-.75555556-.75555556s-.75555555.37777778-.75555555.75555556v3.4h-3.4c-.37777778 0-.75555556.37777777-.75555556.75555555 0 .37777778.37777778.75555556.75555556.75555556h3.4v3.4c0 .37777777.37777777.75555555.75555555.75555555.37777778 0 .75555556-.37777778.75555556-.75555555v-3.4h3.4c.37777777 0 .75555555-.37777778.75555555-.75555556s-.28333333-.75555555-.75555555-.75555555z"/>
    <path fill="rgb(26,240,140)" fill-rule="evenodd" d="M218.06666667 29.15555556h-3.4v-3.4c0-.37777778-.37777778-.75555556-.75555556-.75555556s-.75555555.37777778-.75555555.75555556v3.4h-3.4c-.37777778 0-.75555556.37777777-.75555556.75555555 0 .37777778.37777778.75555556.75555556.75555556h3.4v3.4c0 .37777777.37777777.75555555.75555555.75555555.37777778 0 .75555556-.37777778.75555556-.75555555v-3.4h3.4c.37777777 0 .75555555-.37777778.75555555-.75555556s-.37777778-.75555555-.75555555-.75555555z"/>
  </g>
</svg>
