<svg xmlns="http://www.w3.org/2000/svg" viewBox="0 0 65 65"><defs><style>.cls-1{fill:#f5f7fb;}.cls-2,.cls-6{fill:#16c774;}.cls-3{fill:#199de6;}.cls-4{fill:#1af08c;}.cls-5{fill:#fff;}.cls-6{opacity:0.3;}</style></defs><title>ico-alat-radiologi</title><g id="Layer_2" data-name="Layer 2"><g id="Layer_1-2" data-name="Layer 1"><circle class="cls-1" cx="32.5" cy="32.5" r="32.5"/><g id="Layer_7" data-name="Layer 7"><g id="Layer_6" data-name="Layer 6"><path class="cls-2" d="M18.08,48.77h28.3a5.38,5.38,0,0,1,5.38,5.38h-40C11.76,51.18,14.59,48.77,18.08,48.77Z"/><path class="cls-2" d="M45.29,20.08s3.59,3.59,3.59,10.76S45.29,41.6,45.29,41.6H38.12S44.4,38,44.4,30.84a11.54,11.54,0,0,0-6.28-10.76Z"/><path class="cls-3" d="M20.58,21.54l4-3.08,3.08,4-4,3.08Z"/><path class="cls-3" d="M40.73,6.15l3-2.31,3.07,4-3,2.31Z"/><path class="cls-4" d="M23.84,17.45,40,5.14l4.62,6.05L28.46,23.5Z"/><path class="cls-3" d="M34.53,16.5H45.29v3.58H34.53Z"/><path class="cls-4" d="M27.57,41.6H45.29v7.17H25.57V43.6A2,2,0,0,1,27.57,41.6Z"/><path class="cls-3" d="M29.15,34.43h3.59V45.19a1.8,1.8,0,0,1-3.59,0Z"/><path class="cls-5" d="M41.71,44.29h0a.89.89,0,0,1,.89.9h0a.89.89,0,0,1-.89.89h0a.89.89,0,0,1-.9-.89h0A.9.9,0,0,1,41.71,44.29Z"/><path class="cls-5" d="M38.12,44.29h0a.9.9,0,0,1,.9.9h0a.9.9,0,0,1-.9.89h0a.89.89,0,0,1-.9-.89h0A.9.9,0,0,1,38.12,44.29Z"/><path class="cls-2" d="M38.12,18.29a3.59,3.59,0,1,1-3.59-3.59A3.59,3.59,0,0,1,38.12,18.29Z"/><path class="cls-4" d="M16.6,34.43H32.74v3H16.6Z"/><ellipse class="cls-6" cx="31.76" cy="53.9" rx="23.24" ry="1.83"/></g><path class="cls-5" d="M4.3,30.84a5.47,5.47,0,0,1,5.47,5.47,5.46,5.46,0,0,1,5.46-5.47h.07a5.47,5.47,0,0,1-5.47-5.46,5.47,5.47,0,0,1-5.46,5.46"/><path class="cls-5" d="M50.81,19.56a4,4,0,0,1,4,4,4,4,0,0,1,4-4h.05a4,4,0,0,1-4-4,4,4,0,0,1-4,4"/></g></g></g></svg>