<svg xmlns="http://www.w3.org/2000/svg" width="20" height="20" viewBox="0 0 20 20">
  <path fill="rgb(255,170,99)" fill-rule="evenodd" d="M10 0c2.671875 0 5.18359375 1.0390625 7.0703125 2.9296875C18.9609375 4.81640625 20 7.328125 20 10s-1.0390625 5.1796875-2.9296875 7.0703125C15.18359375 18.9609375 12.671875 20 10 20s-5.1796875-1.0390625-7.0703125-2.9296875C1.0390625 15.18359375 0 12.671875 0 10s1.0390625-5.18359375 2.9296875-7.0703125C4.81640625 1.0390625 7.328125 0 10 0zM4.30078125 6.9296875c.9765625-.9765625 2.5625-.9765625 3.53515625 0 .234375.234375.234375.609375 0 .83984375-.1171875.1171875-.26953125.17578125-.421875.17578125s-.3046875-.05859375-.421875-.17578125c-.51171875-.51171875-1.33984375-.51171875-1.8515625 0-.234375.234375-.609375.234375-.84375 0-.2265625-.23046875-.2265625-.609375.00390625-.83984375zm11.3984375 0c-.97265625-.9765625-2.55859375-.9765625-3.53515625 0-.234375.23046875-.234375.609375-.00390625.83984375.234375.234375.609375.234375.84375 0 .51171875-.51171875 1.33984375-.51171875 1.8515625 0 .1171875.1171875.26953125.17578125.421875.17578125s.3046875-.05859375.421875-.17578125c.234375-.23046875.234375-.60546875 0-.83984375zM5 11.9006195c0 2.50453187 2.24218369 4.54078675 5 4.54078675s5-2.03927612 5-4.54078674c0-.25377655-.22621536-.45921326-.50565338-.45921326H5.5056572c-.27944184 0-.5056572.2054367-.5056572.45921326z"/>
</svg>
