<svg xmlns="http://www.w3.org/2000/svg" viewBox="0 0 65 65"><defs><style>.cls-1{fill:#f5f7fb;}.cls-2,.cls-5{fill:#16c774;}.cls-2{opacity:0.3;}.cls-3{fill:#1af08c;}.cls-4{fill:#fff;}.cls-6{fill:#199de6;}</style></defs><title>ico-sinarx</title><g id="Layer_2" data-name="Layer 2"><g id="Layer_1-2" data-name="Layer 1"><circle class="cls-1" cx="32.5" cy="32.5" r="32.5"/><g id="Layer_3" data-name="Layer 3"><ellipse class="cls-2" cx="32.28" cy="54.63" rx="23.24" ry="1.83"/><rect class="cls-3" x="12" y="5.26" width="41" height="48.9" rx="2.5"/><rect class="cls-4" x="16.5" y="10.16" width="32" height="32" rx="2"/><circle class="cls-5" cx="18.89" cy="47.48" r="1.88"/><circle class="cls-5" cx="25.4" cy="47.48" r="1.87"/><rect class="cls-5" x="29.66" y="45.98" width="18.7" height="3" rx="1.5"/><path class="cls-5" d="M12,34.11h-.17a2.56,2.56,0,0,0-2.78,2.26V48a2.56,2.56,0,0,0,2.78,2.26H12Z"/><path class="cls-5" d="M53,34.11h.17A2.56,2.56,0,0,1,56,36.37V48a2.56,2.56,0,0,1-2.78,2.26H53Z"/><path class="cls-6" d="M46.22,17a.5.5,0,0,0,.5-.5V12.9h-3.6a.5.5,0,0,0-.5.5.5.5,0,0,0,.5.5h2.6v2.57A.5.5,0,0,0,46.22,17Z"/><path class="cls-6" d="M46.35,35.35a.5.5,0,0,1,.5.5v3.57H43.24a.5.5,0,1,1,0-1h2.61V35.85A.5.5,0,0,1,46.35,35.35Z"/><path class="cls-6" d="M18.65,17a.5.5,0,0,1-.5-.5V12.9h3.61a.51.51,0,0,1,.5.5.5.5,0,0,1-.5.5H19.15v2.57A.5.5,0,0,1,18.65,17Z"/><path class="cls-6" d="M18.78,35.35a.5.5,0,0,0-.5.5v3.57h3.6a.5.5,0,0,0,0-1h-2.6V35.85A.5.5,0,0,0,18.78,35.35Z"/><polygon class="cls-6" points="35.53 34.16 28.93 21.94 25.21 27.41 18.15 27.41 18.15 24.91 23.88 24.91 29.17 17.13 35.24 28.37 36.69 24.91 46.72 24.91 46.72 27.41 38.35 27.41 35.53 34.16"/></g></g></g></svg>