<svg xmlns="http://www.w3.org/2000/svg" viewBox="0 0 36.14 32.5"><defs><style>.cls-1{fill:#199de6;}.cls-2{fill:#1af08c;}</style></defs><title>ico-jenis</title><g id="Layer_2" data-name="Layer 2"><g id="Layer_1-2" data-name="Layer 1"><polygon class="cls-1" points="16.52 22.92 12.77 15.55 10.47 18.39 4.02 18.39 4.02 16.39 9.65 16.39 13.35 12.15 16.62 18.54 20.41 11.53 21.97 15.93 32.31 15.93 32.31 17.93 20.55 17.93 20.03 16.44 16.52 22.92"/><path class="cls-2" d="M18.07,32.5a3.51,3.51,0,0,1-2.31-.87c-1.33-1.16-2.61-2.25-3.74-3.21a71.71,71.71,0,0,1-8.39-7.89,13.74,13.74,0,0,1-3.63-9A11.9,11.9,0,0,1,3,3.38,10.44,10.44,0,0,1,10.79,0a9.83,9.83,0,0,1,6.15,2.12,11.72,11.72,0,0,1,1.13,1,11.72,11.72,0,0,1,1.13-1A9.83,9.83,0,0,1,25.35,0a10.44,10.44,0,0,1,7.76,3.38,11.9,11.9,0,0,1,3,8.11,13.74,13.74,0,0,1-3.63,9,70.84,70.84,0,0,1-8.39,7.88c-1.13,1-2.41,2.06-3.74,3.22A3.51,3.51,0,0,1,18.07,32.5ZM10.79,3.15A7.32,7.32,0,0,0,5.35,5.51a8.74,8.74,0,0,0-2.2,6,10.76,10.76,0,0,0,2.91,7A67.46,67.46,0,0,0,14,26c1.16,1,2.45,2.08,3.79,3.25a.38.38,0,0,0,.48,0C19.65,28.09,20.94,27,22.08,26a68.66,68.66,0,0,0,8-7.5,10.78,10.78,0,0,0,2.92-7,8.75,8.75,0,0,0-2.21-6,7.32,7.32,0,0,0-5.44-2.36,6.74,6.74,0,0,0-4.22,1.46,8.82,8.82,0,0,0-1.79,1.86L18.07,8.23,16.8,6.47A8.82,8.82,0,0,0,15,4.61,6.74,6.74,0,0,0,10.79,3.15Z"/></g></g></svg>