<svg xmlns="http://www.w3.org/2000/svg" viewBox="0 0 65 65"><defs><style>.cls-1{fill:#f5f7fb;}.cls-2{fill:#1af08c;}.cls-3,.cls-6{fill:#16c774;}.cls-4{fill:#fff;}.cls-5{fill:#199de6;}.cls-6{opacity:0.3;}</style></defs><title>ico-bukti</title><g id="Layer_2" data-name="Layer 2"><g id="Layer_1-2" data-name="Layer 1"><circle class="cls-1" cx="32.5" cy="32.5" r="32.5"/><g id="Layer_4" data-name="Layer 4"><path class="cls-2" d="M13.13,54.11v-47a2.57,2.57,0,0,1,2.64-2.5h25.9L54.13,16.56V54.11Z"/><polygon class="cls-3" points="41.67 4.64 54.13 16.56 41.67 16.56 41.67 4.64"/><rect class="cls-3" x="9.13" y="54.11" width="49.01" height="2"/><path class="cls-4" d="M23.85,42.22c-1.89,0-5.11-1.83-5.48-2a.75.75,0,0,1-.27-1,.74.74,0,0,1,1-.27c.89.5,3.47,1.83,4.73,1.83h0c.39,0,1.33-1.21,1.83-1.86,1-1.32,2-2.57,3.21-2.57s2.19,1.14,3.5,2.46c.72.73,1.92,2,2.35,2a7.79,7.79,0,0,0,4.31-1.52A.75.75,0,0,1,40,40.36a9.13,9.13,0,0,1-5.25,1.86c-1,0-2.14-1.12-3.42-2.41-.74-.76-2-2-2.43-2s-1.41,1.2-2,2c-1,1.25-1.9,2.43-3,2.44Z"/><path class="cls-5" d="M39.23,37.33l19.36-19a2.36,2.36,0,0,1,3.29,0h0a2.37,2.37,0,0,1,0,3.42L42.21,40.29Z"/><polygon class="cls-5" points="39.23 37.33 42.21 40.29 39.23 40.48 39.23 37.33"/><path class="cls-4" d="M39.12,46.6H18.75a.75.75,0,1,1,0-1.5H39.12a.75.75,0,0,1,0,1.5Z"/><path class="cls-4" d="M45.4,29H34.83a.75.75,0,0,1,0-1.5H45.4a.75.75,0,0,1,0,1.5Z"/><path class="cls-4" d="M47.68,20.42H34.83a.75.75,0,0,1,0-1.5H47.68a.75.75,0,0,1,0,1.5Z"/><path class="cls-4" d="M47.68,24.72H34.83a.75.75,0,0,1,0-1.5H47.68a.75.75,0,0,1,0,1.5Z"/><path class="cls-5" d="M56,30.89a.54.54,0,0,1-.35-.14.51.51,0,0,1,0-.71l4.91-5.12-1-1a.5.5,0,1,1,.69-.73L62,24.89l-5.6,5.84A.52.52,0,0,1,56,30.89Z"/><path class="cls-4" d="M28.91,16.49H19.09A1.09,1.09,0,0,0,18,17.58v12a1.09,1.09,0,0,0,1.09,1.09h9.82A1.09,1.09,0,0,0,30,29.58v-12A1.09,1.09,0,0,0,28.91,16.49Z"/><circle class="cls-5" cx="24" cy="21.13" r="2.19"/><path class="cls-5" d="M27.34,26.79c-.45,1-2.1,1.14-3.34,1.12s-2.9-.15-3.34-1.12c-.74-1.62,1.3-3.64,1.3-3.64a3.05,3.05,0,0,0,2,1,3.05,3.05,0,0,0,2-1S28.08,25.17,27.34,26.79Z"/><ellipse class="cls-6" cx="33.63" cy="56.11" rx="23.24" ry="1.83"/></g></g></g></svg>