<svg xmlns="http://www.w3.org/2000/svg" viewBox="0 0 29.31 32.5"><defs><style>.cls-1{fill:#1af08c;}.cls-2{fill:none;}.cls-3{fill:#199de6;}</style></defs><title>ico-dosis</title><g id="Layer_2" data-name="Layer 2"><g id="Layer_1-2" data-name="Layer 1"><rect class="cls-1" x="4.66" width="20" height="3" rx="1.5"/><path class="cls-1" d="M26.81,32.5H2.5A2.5,2.5,0,0,1,0,30V14L7.44,6.56V0H21.87V6.56L29.31,14V30A2.5,2.5,0,0,1,26.81,32.5ZM3,29.5H26.31V15.24L18.87,7.8V3H10.44V7.8L3,15.24Z"/><line class="cls-1" x1="20.37" y1="4.43" x2="24.66" y2="4.43"/><line class="cls-2" x1="27.81" y1="2.11" x2="24.66" y2="2.11"/><polygon class="cls-3" points="20.66 18 16.16 18 16.16 13.5 13.16 13.5 13.16 18 8.66 18 8.66 21 13.16 21 13.16 25.5 16.16 25.5 16.16 21 20.66 21 20.66 18"/></g></g></svg>