<svg xmlns="http://www.w3.org/2000/svg" viewBox="0 0 65 65"><defs><style>.cls-1{fill:#f5f7fb;}.cls-2{fill:#1af08c;}.cls-3{fill:#16c774;}.cls-4{fill:#ffd9b6;}.cls-5{fill:#dfc0a3;}.cls-6{fill:#199de6;}.cls-7{fill:#fff;}</style></defs><title>ico-resiko</title><g id="Layer_2" data-name="Layer 2"><g id="Layer_1-2" data-name="Layer 1"><circle class="cls-1" cx="32.5" cy="32.5" r="32.5"/><g id="Layer_2-2" data-name="Layer 2"><rect class="cls-2" x="2.2" y="38.36" width="10.85" height="17.75"/><circle class="cls-3" cx="7.62" cy="43.39" r="1.55"/><rect class="cls-3" x="2.2" y="52.44" width="10.85" height="3.67"/><path class="cls-4" d="M13.12,41S22.22,39,24,39.29s10.76,2.63,10.76,2.63,1.62.82,1.59,2.22a3.84,3.84,0,0,1-1.23,2.47s2,1.48,6.14.45,14.14-4.89,15.41-2.84,1.15,3.7-4.64,6.13-13.35,6.7-15.62,6.7c-3,0-23.24-3.62-23.24-3.62Z"/><path class="cls-5" d="M36.92,47.31h0a4.76,4.76,0,0,1-1.92-.7,21.64,21.64,0,0,1-3.57.41c-2.42.12-7-1.87-7-1.87a9.9,9.9,0,0,0,6.61,3.31C35.5,48.91,36.92,47.31,36.92,47.31Z"/><path class="cls-2" d="M47.71,9.29l-15-4.69-15,4.69a73.56,73.56,0,0,0,1.4,15.78c1.65,7.07,13.56,13,13.56,13s11.92-5.92,13.57-13A73.23,73.23,0,0,0,47.71,9.29Z"/><path class="cls-6" d="M47.71,9.29l-15-4.69h0l-15,4.69s-.05,1.83.06,4.5L32.75,9l14.91,4.75C47.77,11.12,47.71,9.29,47.71,9.29Z"/><circle class="cls-7" cx="32.5" cy="21.72" r="7.36"/><polygon class="cls-6" points="37.39 20.92 33.81 20.92 33.81 17.34 31.23 17.34 31.23 20.92 27.65 20.92 27.65 23.51 31.23 23.51 31.23 27.09 33.81 27.09 33.81 23.51 37.39 23.51 37.39 20.92"/><path class="cls-7" d="M4,25.38a5.45,5.45,0,0,1,5.46,5.46,5.46,5.46,0,0,1,5.47-5.46H15a5.47,5.47,0,0,1-5.47-5.47,5.47,5.47,0,0,1-5.47,5.47"/><path class="cls-7" d="M45.26,37.44a4,4,0,0,1,4,4,4,4,0,0,1,4-4h0a4,4,0,0,1-4-4,4,4,0,0,1-4,4"/></g></g></g></svg>